<?xml version="1.0" encoding="utf-8"?>
<!-- Generator: Adobe Illustrator 21.0.1, SVG Export Plug-In . SVG Version: 6.00 Build 0)  -->
<svg version="1.1" id="Layer_1" xmlns="http://www.w3.org/2000/svg" xmlns:xlink="http://www.w3.org/1999/xlink" x="0px" y="0px"
	 viewBox="0 0 448.7 506.2" style="enable-background:new 0 0 448.7 506.2;" xml:space="preserve">
<g>
	<path d="M275.7,15.5c-1.2,2.5-1.9,4.4-2.5,6.8l-6.8,89.6c-1.9,7.5,0,15.6,4.4,21.8l31.1,46L221,228.9l-95.8-13.7
		c-6.8-1.2-13.7,0-19.9,3.1l-90.8,49.8c-5,3.1-8.7,6.8-11.2,11.8c-4.4,8.1-4.4,18.7,0.6,27.4c8.1,13.7,25.5,18,39.2,10.6l82.1-44.8
		l88.4,11.8l0.6,0.6l-47.9,93.3c-3.7,8.1-4.4,16.8-0.6,24.9l39.2,82.8c6.8,14.3,23.6,20.5,38,13.7c14.3-6.8,20.5-23.6,13.7-38
		l-33-70.3l41.7-82.1c14.9-14.9,26.1-19.9,26.1-19.9l50.4-28l5.6,46l-33.6,65.3c-6.8,14.3-1.9,31.1,12.4,38.6
		c14.3,6.8,31.1,1.9,38.6-12.4L402,326c2.5-5,3.7-10.6,3.1-16.2l-10.6-90.2c-0.6-4.4-1.9-8.7-4.4-12.4l-64.1-95.2l4.4-77.8
		c3.1-15.6-6.8-30.5-21.8-33.6C294.4-1.9,281.9,4.3,275.7,15.5L275.7,15.5z"/>
	<path d="M448.7,131.2c0,24.4-19.8,44.2-44.2,44.2s-44.2-19.8-44.2-44.2c0-24.4,19.8-44.2,44.2-44.2S448.7,106.8,448.7,131.2"/>
	<path d="M293.8,481.5c0,0,84.6-18,97.7-51c8.7-21.2,23-8.1,22.4-2.5C412.6,444.2,376.5,482.8,293.8,481.5L293.8,481.5z"/>
	<path d="M269.5,502.1c0,0,72.2,1.9,87.7-11.8c10-9.3,19.9-0.6,18.7,1.9C372.8,499,337.3,513.3,269.5,502.1L269.5,502.1z"/>
</g>
</svg>
