<?xml version="1.0" encoding="utf-8"?>
<!-- Generator: Adobe Illustrator 21.0.1, SVG Export Plug-In . SVG Version: 6.00 Build 0)  -->
<svg version="1.1" id="Layer_1" xmlns="http://www.w3.org/2000/svg" xmlns:xlink="http://www.w3.org/1999/xlink" x="0px" y="0px"
	 viewBox="0 0 90.7 122.9" style="enable-background:new 0 0 90.7 122.9;" xml:space="preserve">
<g>
	<path style="fill:#178913;" d="M33.5,71.7c1.8-0.9,3.8-1.8,5.7-2.8c0.7-0.4,1.1-1.2,0.9-2l-1.7-10.6c-0.2-1.5-1.9-2.1-3.1-1.2
		c-1.5,1.2-3.4,2.3-5.8,3.3l-0.2,0.1c-6.8,1.7-10.6,0.3-15.9-1.6c-3.9-1.4-7.8-2.7-11.6-4.1c-1-0.3-1.5-1.4-1.2-2.4l3.7-11.1
		c0.3-1,1.5-1.6,2.5-1.2l10.8,3.8l1.8,0.7c0.9,0.3,1.8,0.6,2.6,1c1.1,0.5,2,0.8,2.3,0.7c1.4-0.7,2.7-2.2,4.3-4
		c3.9-4.4,9-10.1,19.9-10.8c20.4-1.3,20-0.3,34.5,14.3c0,0.1,0.1,0.1,0.1,0.2l6.5,8.2c0.6,0.8,0.5,1.9-0.2,2.6l-7,6.6
		c-0.8,0.8-2,0.7-2.8-0.1c-3.6-4-6.8-8.6-10.4-12.6c-1.6-1.8-3-3.3-4.6-4.1c-0.5-0.2-1.1-0.3-1.8-0.4c-1.3-0.1-2.3,1-2,2.3l3.5,18.7
		c0.4,2.3,0.5,4.5,0.1,6.6c-0.3,1.5-0.8,2.9-1.6,4.2c-0.3,0.5-0.4,1.1-0.2,1.6c1.9,6.3,4.4,13.9,7,21.3c2.7,7.8,5.6,15.4,8,21.4l0,0
		c0.5,1.3-0.4,2.7-1.8,2.7l-12.1-0.1c-0.7,0-1.4-0.4-1.7-1l0,0c-2.4-4.7-5.1-10.9-7.5-17.3c-2.4-6.2-4.6-12.6-6.3-18.2
		c-0.3-1-1.4-1.6-2.4-1.3c-1.7,0.5-3.5,1.1-5.2,1.6c-2.3,0.7-4.2,1.5-5.4,2c-0.3,0.1-0.6,0.9-1,1.7L34,90.4
		c-0.3,0.8-0.5,1.6-0.5,2.4c-0.1,1,0,2.1,0.1,3.3c0,8.1,0.5,16.5,0.8,24.7c0,1.1-0.8,2-1.9,2l-11.5,0c-1,0-1.9-0.8-1.9-1.8
		l-0.9-22.6c0-0.7,0-1.1-0.1-1.4v0c-0.1-1-0.1-2-0.1-3.1c0-1.1,0-2.2,0.1-3.2C19.4,78.3,25.8,75.3,33.5,71.7L33.5,71.7z M33.2,1.4
		c3.2-1.5,6.9-1.9,10.4-0.7C47.3,2,50,4.5,51.5,7.7s1.9,6.9,0.7,10.4c-1.2,3.6-3.8,6.3-6.9,7.9s-6.9,1.9-10.4,0.7
		c-3.6-1.2-6.3-3.8-7.9-6.9s-1.9-6.9-0.7-10.4C27.5,5.7,30.1,3,33.2,1.4L33.2,1.4z"/>
</g>
</svg>
